#!OML:ASF I:\golf\golf\golf 2\Subject 1\2002-09-07\Subject1.ASF
:FULLY-SPECIFIED
:DEGREES
417
root 1.54992 17.7751 -4.53496 6.37786 11.4034 -4.83529
lowerback 4.78091 -0.684664 -0.499497
upperback 1.20124 -0.806238 6.79859
thorax -1.33681 -0.396124 7.43056
lowerneck -25.6461 -5.54615 -2.04452
upperneck 10.9087 -7.076 1.94474
head 7.59928 -3.25454 0.0149637
rclavicle 1.98785e-015 2.70347e-014
rhumerus -34.1987 -6.16921 -70.1822
rradius 45.0899
rwrist -10.7802
rhand -16.3743 10.3626
rfingers 7.12502
rthumb 9.83908 -19.3875
lclavicle 1.98785e-015 2.70347e-014
lhumerus -21.1067 -7.3198 86.4607
lradius 36.3067
lwrist 3.8025
lhand -8.87537 31.7954
lfingers 7.12502
lthumb 17.0664 61.0657
rfemur -30.1873 1.44741 18.2899
rtibia 29.4002
rfoot -3.3923 -1.57445
rtoes 9.8335
lfemur -11.5539 0.876009 -15.7909
ltibia 30.607
lfoot -22.1135 -2.17881
ltoes -4.9083
418
root 1.57456 17.7803 -4.56478 6.21714 11.1327 -5.08653
lowerback 4.67521 -0.625044 -0.293557
upperback 1.11686 -0.716154 6.77088
thorax -1.38014 -0.348955 7.27462
lowerneck -25.6097 -5.50098 -1.89598
upperneck 11.0652 -7.04375 1.78962
head 7.63437 -3.24748 -0.0567943
rclavicle 3.97569e-015 -1.59028e-015
rhumerus -34.4748 -6.2973 -70.4447
rradius 44.9292
rwrist -10.6302
rhand -15.8833 9.87817
rfingers 7.12502
rthumb 10.3127 -19.849
lclavicle 3.97569e-015 -1.59028e-015
lhumerus -21.2463 -7.38347 86.1356
lradius 36.5887
lwrist 3.76014
lhand -8.66962 32.0101
lfingers 7.12502
lthumb 17.2644 61.2632
rfemur -29.9834 1.6219 18.4688
rtibia 29.0235
rfoot -3.01278 -1.46005
rtoes 9.74065
lfemur -11.4205 0.915165 -15.6834
ltibia 30.5503
lfoot -22.0251 -1.80682
ltoes -5.50723
419
root 1.59701 17.7845 -4.59263 6.16464 10.9123 -5.20099
lowerback 4.39024 -0.580173 -0.330759
upperback 1.05262 -0.664624 6.78586
thorax -1.29289 -0.323606 7.30473
lowerneck -25.4391 -5.50871 -1.79987
upperneck 11.0654 -7.05698 1.60083
head 7.59685 -3.27136 -0.132204
rclavicle 5.36719e-015 2.22639e-014
rhumerus -34.6022 -6.35872 -70.6062
rradius 44.6137
rwrist -10.4211
rhand -15.4258 9.50296
rfingers 7.12502
rthumb 10.7541 -20.2018
lclavicle 5.36719e-015 2.22639e-014
lhumerus -21.3602 -7.31315 85.9135
lradius 36.8356
lwrist 3.67224
lhand -8.56989 31.9722
lfingers 7.12502
lthumb 17.3604 61.2169
rfemur -29.8759 1.77537 18.4959
rtibia 28.6818
rfoot -2.69686 -1.41423
rtoes 9.03537
lfemur -11.3944 0.928166 -15.72
ltibia 30.5035
lfoot -21.941 -1.46045
ltoes -5.45743
420
root 1.62098 17.7857 -4.62307 6.16144 10.6624 -5.08448
lowerback 4.16893 -0.536424 -0.569403
upperback 0.980892 -0.621634 6.7501
thorax -1.24627 -0.301344 7.39949
lowerneck -25.5163 -5.50413 -2.01533
upperneck 11.3473 -7.00555 1.71895
head 7.71598 -3.23998 -0.0593222
rclavicle -3.02153e-014 -5.24792e-014
rhumerus -34.6603 -6.32208 -70.7441
rradius 44.2718
rwrist -10.3011
rhand -14.8127 8.96432
rfingers 7.12502
rthumb 11.3454 -20.7088
lclavicle -3.02153e-014 -5.24792e-014
lhumerus -21.4645 -7.23314 85.7349
lradius 37.0078
lwrist 3.63308
lhand -8.47786 31.8492
lfingers 7.12502
lthumb 17.449 61.0861
rfemur -29.8068 1.78647 18.2929
rtibia 28.3556
rfoot -2.46627 -1.29452
rtoes 8.68369
lfemur -11.3886 0.825152 -16.0142
ltibia 30.4643
lfoot -21.8392 -1.19354
ltoes -4.43622
421
root 1.64446 17.7873 -4.65367 6.12123 10.3188 -5.05633
lowerback 4.02525 -0.470329 -0.684232
upperback 0.911646 -0.540543 6.69157
thorax -1.24758 -0.259217 7.39737
lowerneck -25.5127 -5.46441 -2.03066
upperneck 11.5076 -6.94838 1.70031
head 7.7687 -3.21373 -0.0578485
rclavicle 2.38542e-014 -3.81667e-014
rhumerus -34.7717 -6.23209 -70.9832
rradius 44.0419
rwrist -10.1597
rhand -14.3602 8.13358
rfingers 7.12502
rthumb 11.7818 -21.515
lclavicle 2.38542e-014 -3.81667e-014
lhumerus -21.6038 -7.19317 85.5065
lradius 37.1899
lwrist 3.63217
lhand -8.4006 31.7931
lfingers 7.12502
lthumb 17.5234 61.0234
rfemur -29.7361 1.90963 18.1822
rtibia 28.0549
rfoot -2.21484 -1.1403
rtoes 8.07227
lfemur -11.3182 0.808156 -16.1979
ltibia 30.3983
lfoot -21.7462 -1.07045
ltoes -3.11085
422
root 1.66493 17.7918 -4.68011 6.07382 9.96228 -5.13436
lowerback 3.77389 -0.39279 -0.778567
upperback 0.878368 -0.447009 6.68514
thorax -1.15272 -0.213401 7.43727
lowerneck -25.442 -5.40027 -1.91509
upperneck 11.5676 -6.87265 1.52322
head 7.76567 -3.19154 -0.123575
rclavicle 1.19271e-015 9.54166e-015
rhumerus -34.8575 -6.14669 -71.1926
rradius 43.7559
rwrist -9.96821
rhand -13.9976 7.4257
rfingers 7.12502
rthumb 12.1314 -22.2026
lclavicle 1.19271e-015 9.54166e-015
lhumerus -21.6905 -7.14232 85.3043
lradius 37.391
lwrist 3.75351
lhand -8.21461 31.7992
lfingers 7.12502
lthumb 17.7023 61.0134
rfemur -29.6475 2.26985 18.1466
rtibia 27.7734
rfoot -2.05337 -1.22249
rtoes 7.78954
lfemur -11.2236 0.878527 -16.2357
ltibia 30.3182
lfoot -21.6277 -0.978985
ltoes -2.54137
